{
	"asset":{
		"generator":"Khronos glTF Blender I/O v4.0.44",
		"version":"2.0"
	},
	"scene":0,
	"scenes":[
		{
			"name":"Scene",
			"nodes":[
				0
			]
		}
	],
	"nodes":[
		{
			"mesh":0,
			"name":"Cube",
			"rotation":[
				0,
				-0.16470091044902802,
				0,
				0.9863435626029968
			],
			"scale":[
				0.5707231163978577,
				0.5707231163978577,
				0.5707231163978577
			],
			"translation":[
				0.00828945729881525,
				0.5968409180641174,
				0
			]
		}
	],
	"materials":[
		{
			"doubleSided":true,
			"name":"Material",
			"pbrMetallicRoughness":{
				"baseColorFactor":[
					0.8003629446029663,
					0,
					0.007001569494605064,
					1
				],
				"metallicFactor":0.8045454621315002,
				"roughnessFactor":0.10454544425010681
			}
		}
	],
	"meshes":[
		{
			"name":"Cube.005",
			"primitives":[
				{
					"attributes":{
						"POSITION":0,
						"NORMAL":1,
						"TEXCOORD_0":2
					},
					"indices":3,
					"material":0
				}
			]
		}
	],
	"accessors":[
		{
			"bufferView":0,
			"componentType":5126,
			"count":164,
			"max":[
				4.363738059997559,
				0.9999999403953552,
				4.201233863830566
			],
			"min":[
				-4.36167573928833,
				-1.0000001192092896,
				-4.309800624847412
			],
			"type":"VEC3"
		},
		{
			"bufferView":1,
			"componentType":5126,
			"count":164,
			"type":"VEC3"
		},
		{
			"bufferView":2,
			"componentType":5126,
			"count":164,
			"type":"VEC2"
		},
		{
			"bufferView":3,
			"componentType":5123,
			"count":342,
			"type":"SCALAR"
		}
	],
	"bufferViews":[
		{
			"buffer":0,
			"byteLength":1968,
			"byteOffset":0,
			"target":34962
		},
		{
			"buffer":0,
			"byteLength":1968,
			"byteOffset":1968,
			"target":34962
		},
		{
			"buffer":0,
			"byteLength":1312,
			"byteOffset":3936,
			"target":34962
		},
		{
			"buffer":0,
			"byteLength":684,
			"byteOffset":5248,
			"target":34963
		}
	],
	"buffers":[
		{
			"byteLength":5932,
			"uri":"logo1.bin"
		}
	]
}
